<svg xmlns="http://www.w3.org/2000/svg" width="1200" height="800" viewBox="0 0 1200 800" fill="none">
  <defs>
    <linearGradient id="bg" x1="0" y1="0" x2="1" y2="1">
      <stop offset="0%" stop-color="#210E14"/>
      <stop offset="100%" stop-color="#28323F"/>
    </linearGradient>
    <linearGradient id="glow" x1="0" y1="0" x2="1" y2="1">
      <stop offset="0%" stop-color="#FB8500"/>
      <stop offset="100%" stop-color="#F92D0A"/>
    </linearGradient>
  </defs>
  <rect width="1200" height="800" rx="36" fill="url(#bg)"/>
  <circle cx="930" cy="180" r="130" fill="#8EB4C2" fill-opacity="0.18"/>
  <circle cx="230" cy="650" r="170" fill="#F92D0A" fill-opacity="0.12"/>
  <path d="M370 410C370 287 468 190 590 190C712 190 810 287 810 410V452H756V410C756 316 683 244 590 244C497 244 424 316 424 410V452H370V410Z" fill="url(#glow)"/>
  <rect x="318" y="430" width="138" height="212" rx="40" fill="#8EB4C2"/>
  <rect x="724" y="430" width="138" height="212" rx="40" fill="#8EB4C2"/>
  <rect x="338" y="452" width="98" height="170" rx="26" fill="#28323F"/>
  <rect x="744" y="452" width="98" height="170" rx="26" fill="#28323F"/>
  <text x="78" y="106" fill="#8EB4C2" font-size="34" font-family="Arial, sans-serif">StackStore Audio</text>
  <text x="78" y="706" fill="white" font-size="66" font-weight="700" font-family="Arial, sans-serif">WH-1000XM Headphone</text>
</svg>
