<svg width="256" height="256" viewBox="0 0 56 56" fill="none" xmlns="http://www.w3.org/2000/svg">
  <rect x="2" y="2" width="52" height="52" rx="16" fill="url(#logo_bg)" />
  <rect x="2" y="2" width="52" height="52" rx="16" stroke="#210E14" stroke-opacity="0.2" />
  <path
    d="M16 21C16 17.6863 18.6863 15 22 15H39V23H24C22.8954 23 22 23.8954 22 25C22 26.1046 22.8954 27 24 27H34C37.3137 27 40 29.6863 40 33C40 36.3137 37.3137 39 34 39H17V31H32C33.1046 31 34 30.1046 34 29C34 27.8954 33.1046 27 32 27H22C18.6863 27 16 24.3137 16 21Z"
    fill="url(#s_grad)"
  />
  <path d="M12 15H18V39H12V15Z" fill="#8EB4C2" />
  <circle cx="44" cy="12" r="4" fill="#8EB4C2" fill-opacity="0.45" />
  <defs>
    <linearGradient id="logo_bg" x1="6" y1="6" x2="52" y2="52" gradientUnits="userSpaceOnUse">
      <stop offset="0%" stop-color="#210E14" />
      <stop offset="55%" stop-color="#28323F" />
      <stop offset="100%" stop-color="#712825" />
    </linearGradient>
    <linearGradient id="s_grad" x1="14" y1="15" x2="43" y2="39" gradientUnits="userSpaceOnUse">
      <stop offset="0%" stop-color="#FB8500" />
      <stop offset="50%" stop-color="#F92D0A" />
      <stop offset="100%" stop-color="#8EB4C2" />
    </linearGradient>
  </defs>
</svg>
