<svg width="32" height="32" viewBox="0 0 32 32" fill="none" xmlns="http://www.w3.org/2000/svg">
  <rect x="3.5" y="3.5" width="25" height="25" rx="6.5" fill="#0A0E14" stroke="#748692"/>
  <path d="M19.18 11.48C18.79 11.95 18.13 12.3 17.49 12.25C17.41 11.61 17.74 10.95 18.1 10.53C18.49 10.06 19.2 9.75 19.8 9.72C19.86 10.39 19.61 11.01 19.18 11.48ZM21.9 19.63C21.49 20.62 21 21.58 20.23 22.32C19.56 22.97 18.83 23.72 17.87 23.72C16.95 23.72 16.7 23.16 15.56 23.16C14.42 23.16 14.13 23.74 13.23 23.74C12.29 23.74 11.63 23.1 10.96 22.35C9.23 20.42 8.08 16.99 9.78 14.02C10.62 12.57 12.04 11.63 13.53 11.63C14.47 11.63 15.35 12.29 15.91 12.29C16.47 12.29 17.57 11.49 18.73 11.62C19.21 11.63 20.57 11.81 21.5 13.14C21.43 13.2 19.12 14.44 19.14 17.09C19.17 20.05 21.83 19.57 21.9 19.63Z" fill="white"/>
</svg>
