<svg width="32" height="32" viewBox="0 0 32 32" fill="none" xmlns="http://www.w3.org/2000/svg">
  <path d="M4.5 3.8L18.8 16L4.5 28.2C4.2 27.8 4 27.2 4 26.5V5.5C4 4.8 4.2 4.2 4.5 3.8Z" fill="#34A853"/>
  <path d="M4.5 3.8L14.2 12.1L10.4 16L4 10.4V5.5C4 4.8 4.2 4.2 4.5 3.8Z" fill="#4285F4"/>
  <path d="M28 16C28 16.7 27.6 17.4 26.9 17.8L21.3 21.1L14.4 16L21.3 10.9L26.9 14.2C27.6 14.6 28 15.3 28 16Z" fill="#FBBC05"/>
  <path d="M4.5 28.2L14.2 19.9L21.3 21.1L10.1 27.8C8.9 28.5 7 28.7 5.5 28.4C5.1 28.3 4.8 28.3 4.5 28.2Z" fill="#EA4335"/>
</svg>
